<svg width="14" height="14" viewBox="0 0 14 14" fill="none" xmlns="http://www.w3.org/2000/svg">
<path d="M2.0378 13.1634H1.0458L1.74727 12.462C2.12549 12.0838 2.36167 11.5918 2.42517 11.0582C1.43821 10.4105 0.716508 9.55836 0.330179 8.58113C-0.0558761 7.60464 -0.10439 6.5297 0.189898 5.47248C0.542998 4.20392 1.37118 3.04767 2.52184 2.2167C3.77224 1.31373 5.32885 0.836426 7.0234 0.836426C9.15809 0.836426 10.9574 1.44974 12.2267 2.61001C13.3702 3.65531 14 5.06528 14 6.58021C14 7.31622 13.8501 8.03236 13.5546 8.70876C13.2487 9.40869 12.8009 10.0319 12.2235 10.5611C10.9524 11.7259 9.15425 12.3416 7.02337 12.3416C6.23233 12.3416 5.40689 12.236 4.66992 12.0423C3.97235 12.7579 3.02709 13.1634 2.0378 13.1634ZM7.0234 1.65823C3.62555 1.65823 1.54061 3.6846 0.981594 5.69286C0.45334 7.59067 1.23205 9.38392 3.06467 10.4898L3.26944 10.6134L3.26314 10.8525C3.25064 11.3257 3.13784 11.7814 2.93592 12.1934C3.42761 12.0271 3.87376 11.7255 4.22314 11.3127L4.39687 11.1075L4.6545 11.1845C5.37749 11.4008 6.21877 11.5198 7.0234 11.5198C11.2522 11.5198 13.1782 8.9593 13.1782 6.58021C13.1782 5.29886 12.6434 4.10429 11.6722 3.21658C10.557 2.19711 8.9494 1.65823 7.0234 1.65823Z" fill="#ABABAB"/>
</svg>
