<svg width="164" height="73" viewBox="0 0 164 73" fill="none" xmlns="http://www.w3.org/2000/svg">
<g filter="url(#filter0_f_5_276)">
<path d="M32.1738 20.4053C34.1074 20.4053 35.8555 20.7178 37.418 21.3428C38.9902 21.958 40.333 22.8174 41.4463 23.9209C42.5596 25.0244 43.4189 26.3379 44.0244 27.8613C44.6299 29.3848 44.9326 31.0498 44.9326 32.8564C44.9326 34.0186 44.8203 35.1416 44.5957 36.2256C44.3711 37.3096 44.0488 38.3301 43.6289 39.2871C43.209 40.2441 42.6914 41.1182 42.0762 41.9092C41.4707 42.7002 40.7822 43.3838 40.0107 43.96C39.249 44.5264 38.4092 44.9658 37.4912 45.2783C36.583 45.5908 35.6113 45.7471 34.5762 45.7471C33.5215 45.7471 32.457 45.6494 31.3828 45.4541C30.3086 45.2588 29.2441 45.0488 28.1895 44.8242C27.8281 45.0293 27.457 45.2051 27.0762 45.3516C26.6953 45.5078 26.3145 45.6348 25.9336 45.7324C25.5527 45.8398 25.1768 45.918 24.8057 45.9668C24.4443 46.0254 24.1025 46.0547 23.7803 46.0547C22.8037 46.0547 22.0615 45.9424 21.5537 45.7178C21.0361 45.4932 20.7773 45.1562 20.7773 44.707C20.7773 44.4434 20.8506 44.209 20.9971 44.0039C21.1338 43.7988 21.3682 43.6279 21.7002 43.4912C22.0322 43.3447 22.4668 43.2373 23.0039 43.1689C23.5312 43.0908 24.1904 43.0518 24.9814 43.0518C25.5967 43.0518 26.2021 43.0859 26.7979 43.1543C27.3936 43.2129 27.9844 43.2861 28.5703 43.374L28.9658 42.9639C29.1709 42.7197 29.3271 42.4121 29.4346 42.041C29.542 41.6602 29.6201 41.1719 29.6689 40.5762C29.7178 39.9805 29.7471 39.2529 29.7568 38.3936C29.7666 37.5244 29.7715 36.4746 29.7715 35.2441C29.7715 34.0527 29.7764 33.0371 29.7861 32.1973C29.8057 31.3477 29.8447 30.6201 29.9033 30.0146C29.9619 29.4092 30.0498 28.8965 30.167 28.4766C30.2842 28.0469 30.4404 27.6562 30.6357 27.3047C30.8408 26.9434 31.0947 26.5918 31.3975 26.25C31.7002 25.8984 32.0615 25.498 32.4814 25.0488L33.2285 25.708C33.0137 25.9131 32.8428 26.167 32.7158 26.4697C32.5986 26.7627 32.5107 27.1143 32.4521 27.5244C32.3936 27.9248 32.3545 28.3838 32.335 28.9014C32.3252 29.4092 32.3203 29.9854 32.3203 30.6299V38.877C32.3203 39.5117 32.252 40.0684 32.1152 40.5469C31.9785 41.0156 31.793 41.4355 31.5586 41.8066C31.334 42.1777 31.0752 42.5098 30.7822 42.8027C30.4893 43.0957 30.1865 43.3691 29.874 43.623C30.4502 43.7402 31.0117 43.8574 31.5586 43.9746C32.1055 44.0918 32.6328 44.1992 33.1406 44.2969C33.6582 44.3945 34.1514 44.4775 34.6201 44.5459C35.0986 44.6045 35.5527 44.6338 35.9824 44.6338C36.7832 44.6338 37.4961 44.458 38.1211 44.1064C38.7461 43.7549 39.2881 43.2764 39.7471 42.6709C40.2061 42.0557 40.5918 41.3379 40.9043 40.5176C41.2266 39.6875 41.4854 38.7988 41.6807 37.8516C41.876 36.9043 42.0127 35.9131 42.0908 34.8779C42.1787 33.8428 42.2227 32.8174 42.2227 31.8018C42.2227 30.1904 42.0176 28.7451 41.6074 27.4658C41.1973 26.1865 40.5869 25.1025 39.7764 24.2139C38.9756 23.3154 37.9746 22.6318 36.7734 22.1631C35.582 21.6846 34.2002 21.4453 32.6279 21.4453C31.4951 21.4453 30.5088 21.5381 29.6689 21.7236C28.8291 21.8994 28.1064 22.1387 27.501 22.4414C26.9053 22.7344 26.417 23.0713 26.0361 23.4521C25.6553 23.833 25.3525 24.2285 25.1279 24.6387C24.9131 25.0391 24.7617 25.4395 24.6738 25.8398C24.5957 26.2402 24.5566 26.6064 24.5566 26.9385C24.5566 27.3291 24.5859 27.7148 24.6445 28.0957C24.7129 28.4668 24.8398 28.7988 25.0254 29.0918C25.2207 29.3848 25.4941 29.6191 25.8457 29.7949C26.1973 29.9707 26.666 30.0586 27.252 30.0586C27.4473 30.0586 27.6084 30.0488 27.7354 30.0293C27.8623 30 27.9697 29.9658 28.0576 29.9268C28.1553 29.8877 28.2383 29.8438 28.3066 29.7949L28.4824 30.6592C28.3359 30.7666 28.0869 30.8594 27.7354 30.9375C27.3936 31.0156 27.0225 31.0547 26.6221 31.0547C26.0361 31.0547 25.4893 30.9521 24.9814 30.7471C24.4834 30.542 24.0488 30.2637 23.6777 29.9121C23.3066 29.5508 23.0186 29.1357 22.8135 28.667C22.5986 28.1982 22.4912 27.7002 22.4912 27.1729C22.4912 26.2646 22.7305 25.4053 23.209 24.5947C23.6875 23.7744 24.3564 23.0566 25.2158 22.4414C26.0752 21.8164 27.0957 21.3232 28.2773 20.9619C29.4688 20.5908 30.7676 20.4053 32.1738 20.4053ZM23.1797 44.1064C23.0234 44.1064 22.8574 44.1113 22.6816 44.1211C22.5059 44.1309 22.3447 44.1553 22.1982 44.1943C22.042 44.2334 21.915 44.292 21.8174 44.3701C21.7197 44.4482 21.6709 44.5605 21.6709 44.707C21.6709 44.9023 21.832 45.0488 22.1543 45.1465C22.4766 45.2441 23.0186 45.293 23.7803 45.293C24.3662 45.293 24.9229 45.2295 25.4502 45.1025C25.9873 44.9756 26.4902 44.79 26.959 44.5459C26.3145 44.4287 25.6748 44.3262 25.04 44.2383C24.4053 44.1504 23.7852 44.1064 23.1797 44.1064ZM52.7695 41.8213C52.7207 41.8994 52.6475 42.0361 52.5498 42.2314C52.4619 42.417 52.3447 42.627 52.1982 42.8613C52.0615 43.0957 51.8955 43.3398 51.7002 43.5938C51.5146 43.8477 51.2998 44.0771 51.0557 44.2822C50.8115 44.4873 50.5381 44.6582 50.2354 44.7949C49.9424 44.9316 49.6152 45 49.2539 45C48.9707 45 48.6777 44.9414 48.375 44.8242C48.0723 44.707 47.7891 44.4922 47.5254 44.1797C47.2715 43.8672 47.0615 43.4424 46.8955 42.9053C46.7295 42.3584 46.6465 41.6553 46.6465 40.7959C46.6465 39.9756 46.6758 39.1553 46.7344 38.335C46.793 37.5049 46.8613 36.748 46.9395 36.0645C47.0273 35.3809 47.1104 34.8096 47.1885 34.3506C47.2666 33.8916 47.3252 33.6133 47.3643 33.5156C47.4033 33.4277 47.4814 33.3496 47.5986 33.2812C47.7158 33.2129 47.8477 33.1592 47.9941 33.1201C48.1504 33.0811 48.3066 33.0518 48.4629 33.0322C48.6289 33.0127 48.7705 33.0029 48.8877 33.0029C49.0439 33.0029 49.166 33.042 49.2539 33.1201C49.3516 33.1982 49.4004 33.3301 49.4004 33.5156C49.4004 33.6035 49.3809 33.7793 49.3418 34.043C49.3125 34.2969 49.2734 34.6094 49.2246 34.9805C49.1758 35.3516 49.1221 35.7617 49.0635 36.2109C49.0146 36.6602 48.9658 37.1191 48.917 37.5879C48.8682 38.0469 48.8242 38.5059 48.7852 38.9648C48.7559 39.4141 48.7412 39.8242 48.7412 40.1953C48.7412 41.2598 48.8535 42.0508 49.0781 42.5684C49.3125 43.0859 49.6934 43.3447 50.2207 43.3447C50.6699 43.3447 51.124 43.0176 51.583 42.3633C52.0518 41.709 52.457 40.7568 52.7988 39.5068C52.8477 38.9795 52.8916 38.418 52.9307 37.8223C52.9795 37.2168 53.0234 36.6455 53.0625 36.1084C53.1016 35.5615 53.1357 35.0732 53.165 34.6436C53.2041 34.2139 53.2383 33.9062 53.2676 33.7207C53.2969 33.584 53.375 33.4717 53.502 33.3838C53.6289 33.2861 53.7705 33.2129 53.9268 33.1641C54.0928 33.1055 54.249 33.0664 54.3955 33.0469C54.5518 33.0176 54.6689 33.0029 54.7471 33.0029C54.9131 33.0029 55.0254 33.042 55.084 33.1201C55.1523 33.1885 55.1865 33.3008 55.1865 33.457C55.1865 33.5938 55.1719 33.8574 55.1426 34.248C55.123 34.6289 55.0938 35.0781 55.0547 35.5957C55.0254 36.1035 54.9912 36.6504 54.9521 37.2363C54.9131 37.8223 54.874 38.3887 54.835 38.9355C54.8057 39.4727 54.7764 39.9609 54.7471 40.4004C54.7275 40.8398 54.7178 41.1719 54.7178 41.3965C54.7178 42.0605 54.752 42.583 54.8203 42.9639C54.8984 43.3447 55.0645 43.5352 55.3184 43.5352C55.5039 43.5352 55.7041 43.418 55.9189 43.1836C56.1436 42.9395 56.3828 42.6025 56.6367 42.1729C56.9004 41.7432 57.1836 41.2354 57.4863 40.6494C57.7891 40.0537 58.1162 39.4043 58.4678 38.7012L58.6143 38.3936L59.2148 38.8477L59.0684 39.1553C58.5996 40.083 58.1846 40.9131 57.8232 41.6455C57.4717 42.3682 57.1348 42.9785 56.8125 43.4766C56.4902 43.9746 56.1631 44.3555 55.8311 44.6191C55.499 44.873 55.1279 45 54.7178 45C54.3369 45 54.0195 44.9268 53.7656 44.7803C53.5215 44.6338 53.3262 44.4238 53.1797 44.1504C53.0332 43.877 52.9258 43.5449 52.8574 43.1543C52.7988 42.7637 52.7695 42.3193 52.7695 41.8213ZM63.4043 34.043C63.1211 34.043 62.8477 34.1455 62.584 34.3506C62.3301 34.5459 62.0859 34.8193 61.8516 35.1709C61.6172 35.5127 61.3877 35.918 61.1631 36.3867C60.9482 36.8457 60.7334 37.3389 60.5186 37.8662V38.042C60.4893 38.9014 60.46 39.8145 60.4307 40.7812C60.4111 41.748 60.4014 42.8027 60.4014 43.9453C60.4014 44.1406 60.333 44.3066 60.1963 44.4434C60.0693 44.5703 59.918 44.6777 59.7422 44.7656C59.5664 44.8438 59.3857 44.9023 59.2002 44.9414C59.0146 44.9805 58.8633 45 58.7461 45C58.5996 45 58.4629 44.9561 58.3359 44.8682C58.209 44.7803 58.1455 44.585 58.1455 44.2822C58.1455 44.1357 58.1602 43.9551 58.1895 43.7402C58.2188 43.5156 58.2578 43.2764 58.3066 43.0225C58.3457 42.7686 58.3945 42.5098 58.4531 42.2461C58.502 41.9727 58.5508 41.7188 58.5996 41.4844C58.5996 40.6543 58.5996 39.9072 58.5996 39.2432C58.5898 38.5791 58.585 37.9883 58.585 37.4707C58.585 36.9531 58.585 36.499 58.585 36.1084C58.5752 35.7178 58.5703 35.3809 58.5703 35.0977C58.5703 34.6289 58.5801 34.2871 58.5996 34.0723C58.6094 33.8477 58.6289 33.6914 58.6582 33.6035C58.707 33.4668 58.7949 33.3594 58.9219 33.2812C59.0586 33.2031 59.2002 33.1445 59.3467 33.1055C59.4932 33.0566 59.6396 33.0273 59.7861 33.0176C59.9326 33.0078 60.0449 33.0029 60.123 33.0029C60.3086 33.0029 60.4307 33.0566 60.4893 33.1641C60.5479 33.2715 60.5771 33.4375 60.5771 33.6621C60.5771 34.1699 60.5771 34.6289 60.5771 35.0391C60.5771 35.4492 60.5674 35.8594 60.5479 36.2695C60.7334 35.8301 60.9482 35.415 61.1924 35.0244C61.4463 34.624 61.7246 34.2773 62.0273 33.9844C62.3301 33.6816 62.6475 33.4424 62.9795 33.2666C63.3213 33.0908 63.6729 33.0029 64.0342 33.0029C64.4736 33.0029 64.835 33.0957 65.1182 33.2812C65.4111 33.457 65.6406 33.7061 65.8066 34.0283C65.9824 34.3506 66.1094 34.7314 66.1875 35.1709C66.2754 35.6006 66.334 36.0693 66.3633 36.5771C66.6367 36.0791 66.9297 35.6152 67.2422 35.1855C67.5645 34.7461 67.9014 34.3652 68.2529 34.043C68.6143 33.7207 68.9902 33.4668 69.3809 33.2812C69.7812 33.0957 70.1963 33.0029 70.626 33.0029C71.3682 33.0029 71.9102 33.2373 72.252 33.7061C72.5938 34.165 72.7646 34.79 72.7646 35.5811C72.7646 36.0791 72.7256 36.6357 72.6475 37.251C72.5693 37.8662 72.4863 38.4912 72.3984 39.126C72.3105 39.751 72.2275 40.3662 72.1494 40.9717C72.0713 41.5771 72.0322 42.1289 72.0322 42.627C72.0322 43.2324 72.1836 43.5352 72.4863 43.5352C72.6426 43.5352 72.8135 43.4424 72.999 43.2568C73.1846 43.0615 73.3945 42.7686 73.6289 42.3779C73.873 41.9775 74.1514 41.4746 74.4639 40.8691C74.7861 40.2637 75.1572 39.541 75.5771 38.7012L75.7236 38.3936L76.3242 38.8477L76.1777 39.1553C75.6016 40.3076 75.1084 41.2598 74.6982 42.0117C74.2979 42.7637 73.9365 43.3643 73.6143 43.8135C73.292 44.2529 72.9844 44.5605 72.6914 44.7363C72.4082 44.9121 72.0908 45 71.7393 45C71.5342 45 71.334 44.9707 71.1387 44.9121C70.9434 44.8535 70.7725 44.751 70.626 44.6045C70.4795 44.458 70.3623 44.2627 70.2744 44.0186C70.1865 43.7646 70.1426 43.4424 70.1426 43.0518C70.1426 42.4658 70.1816 41.8066 70.2598 41.0742C70.3379 40.3418 70.4258 39.6094 70.5234 38.877C70.6211 38.1445 70.709 37.4561 70.7871 36.8115C70.8652 36.1572 70.9043 35.625 70.9043 35.2148C70.9043 34.8535 70.8262 34.5654 70.6699 34.3506C70.5137 34.126 70.2793 34.0137 69.9668 34.0137C69.6543 34.0137 69.3271 34.1357 68.9854 34.3799C68.6533 34.624 68.3262 34.9414 68.0039 35.332C67.6914 35.7129 67.3936 36.1426 67.1104 36.6211C66.8369 37.0996 66.5977 37.5732 66.3926 38.042C66.3926 39.0674 66.3828 39.9658 66.3633 40.7373C66.3438 41.499 66.3145 42.1436 66.2754 42.6709C66.2461 43.1982 66.2021 43.6182 66.1436 43.9307C66.085 44.2334 66.0215 44.4385 65.9531 44.5459C65.9043 44.6143 65.8213 44.6777 65.7041 44.7363C65.5869 44.7949 65.4551 44.8438 65.3086 44.8828C65.1719 44.9219 65.0352 44.9512 64.8984 44.9707C64.7715 44.9902 64.6738 45 64.6055 45C64.4492 45 64.3125 44.9561 64.1953 44.8682C64.0879 44.7705 64.0342 44.585 64.0342 44.3115C64.0342 44.1846 64.0439 44.0137 64.0635 43.7988C64.0928 43.584 64.127 43.3447 64.166 43.0811C64.2051 42.8174 64.249 42.5342 64.2979 42.2314C64.3467 41.9287 64.3955 41.6211 64.4443 41.3086C64.4541 41.0156 64.4639 40.6885 64.4736 40.3271C64.4834 39.9658 64.4932 39.6094 64.5029 39.2578C64.5127 38.8965 64.5176 38.5547 64.5176 38.2324C64.5273 37.9004 64.5322 37.6172 64.5322 37.3828C64.5322 36.8848 64.5176 36.4307 64.4883 36.0205C64.459 35.6104 64.4004 35.2588 64.3125 34.9658C64.2344 34.6729 64.1221 34.4482 63.9756 34.292C63.8291 34.126 63.6387 34.043 63.4043 34.043ZM77.6572 37.207C77.667 38.3301 77.7402 39.3311 77.877 40.21C78.0137 41.0791 78.2041 41.8164 78.4482 42.4219C78.6924 43.0176 78.9902 43.4717 79.3418 43.7842C79.6934 44.0967 80.0938 44.2529 80.543 44.2529C81.1582 44.2529 81.666 44.0088 82.0664 43.5205C82.4766 43.0225 82.7793 42.3438 82.9746 41.4844C82.4668 41.377 81.9834 41.1768 81.5244 40.8838C81.0654 40.5908 80.6602 40.2295 80.3086 39.7998C79.957 39.3604 79.6738 38.8574 79.459 38.291C79.2539 37.7246 79.1514 37.1094 79.1514 36.4453C79.1514 35.8984 79.2197 35.4199 79.3564 35.0098C79.5029 34.5898 79.6934 34.2432 79.9277 33.9697C80.1621 33.6865 80.4307 33.4766 80.7334 33.3398C81.0459 33.1934 81.373 33.1201 81.7148 33.1201C82.1152 33.1201 82.5254 33.2373 82.9453 33.4717C83.3652 33.6963 83.7461 34.0381 84.0879 34.4971C84.4297 34.9463 84.708 35.5127 84.9229 36.1963C85.1377 36.8799 85.2451 37.6758 85.2451 38.584C85.2451 38.9258 85.2256 39.2627 85.1865 39.5947C85.1475 39.9268 85.0889 40.249 85.0107 40.5615C85.4795 40.4248 85.9043 40.2051 86.2852 39.9023C86.6758 39.5996 86.998 39.1992 87.252 38.7012L87.4131 38.3936L88.0137 38.8477L87.8525 39.1553C87.5205 39.8193 87.0762 40.3516 86.5195 40.752C85.9727 41.1426 85.377 41.3965 84.7324 41.5137C84.5566 42.0117 84.3271 42.4756 84.0439 42.9053C83.7705 43.3252 83.4531 43.6914 83.0918 44.0039C82.7402 44.3164 82.3398 44.5605 81.8906 44.7363C81.4512 44.9121 80.9727 45 80.4551 45C79.7227 45 79.0488 44.8438 78.4336 44.5312C77.8281 44.2188 77.3008 43.7109 76.8516 43.0078C76.4121 42.3047 76.0654 41.3818 75.8115 40.2393C75.5674 39.0869 75.4453 37.6758 75.4453 36.0059C75.4453 33.6816 75.5527 31.7041 75.7676 30.0732C75.9824 28.4326 76.2656 27.0996 76.6172 26.0742C76.9688 25.0391 77.374 24.2871 77.833 23.8184C78.292 23.3398 78.7656 23.1006 79.2539 23.1006C79.5566 23.1006 79.8057 23.2227 80.001 23.4668C80.1963 23.7012 80.2939 24.1309 80.2939 24.7559C80.2939 25.2441 80.2549 25.8008 80.1768 26.4258C80.0986 27.0508 79.9961 27.7197 79.8691 28.4326C79.7422 29.1455 79.5908 29.8877 79.415 30.6592C79.2393 31.4209 79.0537 32.1826 78.8584 32.9443C78.6631 33.6963 78.4629 34.4385 78.2578 35.1709C78.0527 35.8936 77.8525 36.5723 77.6572 37.207ZM80.1182 36.3281C80.1182 36.9043 80.1963 37.4365 80.3525 37.9248C80.5186 38.4033 80.7383 38.8281 81.0117 39.1992C81.2852 39.5605 81.6025 39.8633 81.9639 40.1074C82.3252 40.3516 82.7109 40.5225 83.1211 40.6201C83.1699 40.3467 83.1992 40.0635 83.209 39.7705C83.2285 39.4678 83.2383 39.1602 83.2383 38.8477C83.2383 38.1543 83.1846 37.5293 83.0771 36.9727C82.9697 36.4062 82.8281 35.9277 82.6523 35.5371C82.4766 35.1367 82.2715 34.8291 82.0371 34.6143C81.8027 34.3994 81.5635 34.292 81.3193 34.292C80.9873 34.292 80.7041 34.4727 80.4697 34.834C80.2354 35.1855 80.1182 35.6836 80.1182 36.3281ZM79.3418 25.1074C79.3418 24.9023 79.3174 24.7412 79.2686 24.624C79.2197 24.5068 79.1416 24.4482 79.0342 24.4482C78.9268 24.4482 78.8193 24.5996 78.7119 24.9023C78.6045 25.2051 78.4971 25.6152 78.3896 26.1328C78.292 26.6504 78.1992 27.251 78.1113 27.9346C78.0332 28.6182 77.96 29.3457 77.8916 30.1172C77.8232 30.8789 77.7695 31.6602 77.7305 32.4609C77.6914 33.2617 77.667 34.0332 77.6572 34.7754C77.8916 33.916 78.1113 33.0371 78.3164 32.1387C78.5215 31.2305 78.6973 30.3516 78.8438 29.502C79 28.6523 79.1221 27.8516 79.21 27.0996C79.2979 26.3379 79.3418 25.6738 79.3418 25.1074ZM104.522 39.1553C104.317 39.5557 104.078 39.9365 103.805 40.2979C103.541 40.6494 103.263 40.9766 102.97 41.2793C102.677 41.5723 102.384 41.8457 102.091 42.0996C101.798 42.3438 101.529 42.5586 101.285 42.7441V44.4287C101.285 45.708 101.183 46.8457 100.978 47.8418C100.782 48.8379 100.494 49.6826 100.113 50.376C99.7422 51.0693 99.293 51.5967 98.7656 51.958C98.248 52.3193 97.667 52.5 97.0225 52.5C96.6709 52.5 96.3486 52.4268 96.0557 52.2803C95.7627 52.1436 95.5088 51.9531 95.2939 51.709C95.0889 51.4648 94.9277 51.1768 94.8105 50.8447C94.6934 50.5225 94.6348 50.1758 94.6348 49.8047C94.6348 49.0918 94.752 48.4326 94.9863 47.8271C95.2305 47.2314 95.5576 46.665 95.9678 46.1279C96.3779 45.6006 96.8516 45.0977 97.3887 44.6191C97.9258 44.1309 98.4971 43.6475 99.1025 43.1689C99.1123 42.6318 99.127 42.0996 99.1465 41.5723C99.1758 41.0449 99.2002 40.5469 99.2197 40.0781C99.249 39.6094 99.2734 39.1846 99.293 38.8037C99.3223 38.4229 99.3467 38.1104 99.3662 37.8662C99.0342 38.54 98.6582 39.2041 98.2383 39.8584C97.8281 40.5029 97.3887 41.1182 96.9199 41.7041C96.4512 42.29 95.958 42.832 95.4404 43.3301C94.9326 43.8184 94.4199 44.2432 93.9023 44.6045C93.3848 44.9658 92.8672 45.2441 92.3496 45.4395C91.8418 45.6445 91.3535 45.7471 90.8848 45.7471C90.3574 45.7471 89.8545 45.6396 89.376 45.4248C88.9072 45.2197 88.4922 44.8926 88.1309 44.4434C87.7793 43.9941 87.501 43.418 87.2959 42.7148C87.0811 42.0117 86.9736 41.1719 86.9736 40.1953C86.9736 39.1016 87.0957 37.9785 87.3398 36.8262C87.584 35.6738 87.9209 34.5312 88.3506 33.3984C88.7803 32.2656 89.293 31.1572 89.8887 30.0732C90.4844 28.9893 91.1338 27.9688 91.8369 27.0117C92.54 26.0449 93.2871 25.1611 94.0781 24.3604C94.8691 23.5498 95.6748 22.8516 96.4951 22.2656C97.3154 21.6797 98.1357 21.2256 98.9561 20.9033C99.7861 20.5713 100.592 20.4053 101.373 20.4053C102.193 20.4053 102.848 20.6152 103.336 21.0352C103.834 21.4453 104.083 22.0312 104.083 22.793C104.083 23.2031 103.995 23.6035 103.819 23.9941C103.653 24.375 103.424 24.7461 103.131 25.1074C102.848 25.459 102.525 25.7959 102.164 26.1182C101.803 26.4307 101.432 26.7188 101.051 26.9824C100.68 27.2461 100.309 27.4805 99.9375 27.6855C99.5762 27.8906 99.2539 28.0615 98.9707 28.1982L98.5312 27.5977C98.9023 27.4121 99.3076 27.1484 99.7471 26.8066C100.187 26.4648 100.597 26.0791 100.978 25.6494C101.358 25.2197 101.676 24.7559 101.93 24.2578C102.184 23.7598 102.311 23.2617 102.311 22.7637C102.311 22.3438 102.198 21.9971 101.974 21.7236C101.759 21.4404 101.412 21.2988 100.934 21.2988C100.191 21.2988 99.3955 21.5283 98.5459 21.9873C97.7061 22.4463 96.8662 23.0859 96.0264 23.9062C95.1963 24.7266 94.4004 25.708 93.6387 26.8506C92.877 27.9834 92.2031 29.2285 91.6172 30.5859C91.0312 31.9434 90.5625 33.3838 90.2109 34.9072C89.8594 36.4307 89.6836 37.9932 89.6836 39.5947C89.6836 40.2979 89.7324 40.9277 89.8301 41.4844C89.9375 42.041 90.084 42.5146 90.2695 42.9053C90.4648 43.2861 90.6992 43.584 90.9727 43.7988C91.2559 44.0039 91.5732 44.1064 91.9248 44.1064C92.3545 44.1064 92.8232 43.9746 93.3311 43.7109C93.8389 43.4473 94.3467 43.0908 94.8545 42.6416C95.3721 42.1924 95.8799 41.6748 96.3779 41.0889C96.876 40.4932 97.335 39.8682 97.7549 39.2139C98.1748 38.5596 98.541 37.8955 98.8535 37.2217C99.166 36.5479 99.3955 35.9082 99.542 35.3027C99.6006 34.5898 99.6592 33.9404 99.7178 33.3545C99.7764 32.7588 99.8301 32.2363 99.8789 31.7871C99.9375 31.3379 99.9912 30.9766 100.04 30.7031C100.089 30.4199 100.133 30.2344 100.172 30.1465C100.25 30 100.362 29.8535 100.509 29.707C100.655 29.5605 100.812 29.4336 100.978 29.3262C101.153 29.209 101.324 29.1162 101.49 29.0479C101.656 28.9795 101.798 28.9453 101.915 28.9453C102.071 28.9453 102.174 29.0088 102.223 29.1357C102.281 29.2627 102.311 29.3994 102.311 29.5459C102.311 29.9756 102.237 30.5469 102.091 31.2598C101.944 31.9727 101.759 32.8027 101.534 33.75C101.437 34.1602 101.363 34.7021 101.314 35.376C101.275 36.04 101.246 36.7529 101.227 37.5146C101.217 38.2666 101.212 39.0283 101.212 39.7998C101.212 40.5615 101.207 41.2451 101.197 41.8506C101.92 41.3232 102.496 40.7812 102.926 40.2246C103.365 39.6582 103.697 39.1504 103.922 38.7012L104.083 38.3936L104.684 38.8477L104.522 39.1553ZM99.0732 44.2529C98.6143 44.6143 98.1943 44.9951 97.8135 45.3955C97.4326 45.7959 97.1055 46.2256 96.832 46.6846C96.5684 47.1436 96.3584 47.6416 96.2021 48.1787C96.0557 48.7256 95.9824 49.3164 95.9824 49.9512C95.9824 50.5566 96.0801 51.0059 96.2754 51.2988C96.4707 51.6016 96.7197 51.7529 97.0225 51.7529C97.3252 51.7529 97.5986 51.6211 97.8428 51.3574C98.0967 51.1035 98.3115 50.6787 98.4873 50.083C98.6729 49.4971 98.8145 48.7256 98.9121 47.7686C99.0195 46.8115 99.0732 45.6396 99.0732 44.2529ZM103.951 38.7012L104.098 38.3936C104.244 38.1006 104.376 37.7979 104.493 37.4854C104.62 37.1729 104.728 36.8799 104.815 36.6064C104.903 36.3232 104.972 36.0742 105.021 35.8594C105.069 35.6348 105.104 35.4639 105.123 35.3467C104.869 35.3174 104.625 35.2539 104.391 35.1562C104.156 35.0586 103.951 34.9268 103.775 34.7607C103.6 34.5947 103.463 34.3994 103.365 34.1748C103.258 33.9502 103.204 33.6963 103.204 33.4131C103.204 33.1885 103.243 32.9883 103.321 32.8125C103.399 32.6367 103.507 32.4902 103.644 32.373C103.771 32.2559 103.917 32.168 104.083 32.1094C104.239 32.041 104.405 32.0068 104.581 32.0068C104.815 32.0068 105.021 32.0557 105.196 32.1533C105.372 32.251 105.519 32.3828 105.636 32.5488C105.753 32.7051 105.841 32.8906 105.899 33.1055C105.958 33.3105 105.987 33.5254 105.987 33.75C106.261 33.75 106.554 33.7109 106.866 33.6328C107.188 33.5547 107.511 33.4717 107.833 33.3838C108.155 33.2861 108.473 33.1982 108.785 33.1201C109.098 33.042 109.386 33.0029 109.649 33.0029C109.874 33.0029 110.055 33.0518 110.191 33.1494C110.328 33.2373 110.396 33.3887 110.396 33.6035C110.396 33.7598 110.348 34.0186 110.25 34.3799C110.162 34.7412 110.05 35.1611 109.913 35.6396C109.776 36.1182 109.625 36.6406 109.459 37.207C109.303 37.7637 109.156 38.3301 109.02 38.9062C108.883 39.4727 108.766 40.0244 108.668 40.5615C108.58 41.0986 108.536 41.5771 108.536 41.9971C108.536 42.5244 108.595 42.8809 108.712 43.0664C108.829 43.252 109.039 43.3447 109.342 43.3447C109.469 43.3447 109.625 43.291 109.811 43.1836C110.006 43.0664 110.24 42.8467 110.514 42.5244C110.787 42.1924 111.109 41.7236 111.48 41.1182C111.861 40.5029 112.301 39.6973 112.799 38.7012L112.945 38.3936L113.546 38.8477L113.399 39.1553C112.813 40.3271 112.291 41.2891 111.832 42.041C111.373 42.793 110.948 43.3887 110.558 43.8281C110.177 44.2676 109.815 44.5752 109.474 44.751C109.132 44.917 108.79 45 108.448 45C107.872 45 107.403 44.7803 107.042 44.3408C106.681 43.9014 106.5 43.2227 106.5 42.3047C106.5 41.8066 106.568 41.2891 106.705 40.752C106.842 40.2148 107.013 39.6826 107.218 39.1553C107.423 38.6182 107.652 38.0908 107.906 37.5732C108.16 37.0557 108.399 36.5674 108.624 36.1084C108.858 35.6396 109.068 35.2051 109.254 34.8047C109.439 34.4043 109.571 34.0527 109.649 33.75L109.562 33.6621C109.405 33.6621 109.195 33.7451 108.932 33.9111C108.668 34.0771 108.37 34.2676 108.038 34.4824C107.716 34.6875 107.369 34.8828 106.998 35.0684C106.627 35.2539 106.251 35.3662 105.87 35.4053C105.851 35.542 105.807 35.7422 105.738 36.0059C105.68 36.2695 105.597 36.5625 105.489 36.8848C105.382 37.207 105.26 37.5391 105.123 37.8809C104.986 38.2227 104.845 38.5449 104.698 38.8477L104.552 39.1553L103.951 38.7012ZM104.669 32.8271C104.581 32.8271 104.508 32.8564 104.449 32.915C104.391 32.9736 104.361 33.042 104.361 33.1201C104.361 33.2373 104.391 33.3398 104.449 33.4277C104.508 33.5059 104.581 33.5742 104.669 33.6328C104.757 33.6816 104.845 33.7207 104.933 33.75C105.03 33.7695 105.113 33.7793 105.182 33.7793C105.182 33.5059 105.138 33.2812 105.05 33.1055C104.962 32.9199 104.835 32.8271 104.669 32.8271ZM121.822 41.3672C121.822 41.9238 121.871 42.3926 121.969 42.7734C122.066 43.1543 122.237 43.3447 122.481 43.3447C122.628 43.3447 122.784 43.2764 122.95 43.1396C123.126 42.9932 123.326 42.7588 123.551 42.4365C123.775 42.1143 124.029 41.6992 124.312 41.1914C124.605 40.6738 124.938 40.0439 125.309 39.3018L125.748 38.3936L126.349 38.8477L125.909 39.7559C125.499 40.5762 125.113 41.3135 124.752 41.9678C124.4 42.6123 124.063 43.1592 123.741 43.6084C123.419 44.0576 123.102 44.4043 122.789 44.6484C122.486 44.8828 122.184 45 121.881 45C121.559 45 121.285 44.9121 121.061 44.7363C120.846 44.5605 120.665 44.3213 120.519 44.0186C120.372 43.7061 120.26 43.3496 120.182 42.9492C120.104 42.5391 120.05 42.1045 120.021 41.6455C119.786 42.1143 119.527 42.5537 119.244 42.9639C118.961 43.3643 118.663 43.7158 118.351 44.0186C118.048 44.3213 117.73 44.5605 117.398 44.7363C117.066 44.9121 116.734 45 116.402 45C115.914 45 115.44 44.8975 114.981 44.6924C114.522 44.4873 114.112 44.1748 113.751 43.7549C113.399 43.335 113.116 42.8076 112.901 42.1729C112.687 41.5283 112.579 40.7715 112.579 39.9023C112.579 38.8867 112.711 37.959 112.975 37.1191C113.238 36.2695 113.595 35.542 114.044 34.9365C114.493 34.3213 115.011 33.8477 115.597 33.5156C116.183 33.1738 116.798 33.0029 117.442 33.0029C117.833 33.0029 118.194 33.0908 118.526 33.2666C118.858 33.4424 119.146 33.6572 119.391 33.9111C119.645 34.1553 119.854 34.4189 120.021 34.7021C120.187 34.9756 120.299 35.21 120.357 35.4053L120.533 33.9844C120.553 33.7988 120.641 33.6426 120.797 33.5156C120.963 33.3887 121.144 33.291 121.339 33.2227C121.534 33.1445 121.725 33.0908 121.91 33.0615C122.096 33.0225 122.228 33.0029 122.306 33.0029C122.423 33.0029 122.501 33.0225 122.54 33.0615C122.579 33.1006 122.599 33.1787 122.599 33.2959C122.599 33.4424 122.555 33.7402 122.467 34.1895C122.389 34.6289 122.301 35.1953 122.203 35.8887C122.115 36.5723 122.027 37.3779 121.939 38.3057C121.861 39.2334 121.822 40.2539 121.822 41.3672ZM120.211 37.5C120.211 37.0508 120.143 36.6113 120.006 36.1816C119.869 35.7422 119.684 35.3564 119.449 35.0244C119.215 34.6826 118.941 34.4092 118.629 34.2041C118.326 33.999 118.004 33.8965 117.662 33.8965C117.242 33.8965 116.847 34.0186 116.476 34.2627C116.114 34.4971 115.797 34.834 115.523 35.2734C115.26 35.7031 115.05 36.2256 114.894 36.8408C114.737 37.4463 114.659 38.1152 114.659 38.8477C114.659 40.3125 114.889 41.4307 115.348 42.2021C115.807 42.9639 116.417 43.3447 117.179 43.3447C117.511 43.3447 117.853 43.2129 118.204 42.9492C118.565 42.6758 118.893 42.29 119.186 41.792C119.488 41.2842 119.732 40.6689 119.918 39.9463C120.113 39.2236 120.211 38.4082 120.211 37.5ZM130.523 34.043C130.24 34.043 129.967 34.1455 129.703 34.3506C129.449 34.5459 129.205 34.8193 128.971 35.1709C128.736 35.5127 128.507 35.918 128.282 36.3867C128.067 36.8457 127.853 37.3389 127.638 37.8662V38.042C127.608 38.9014 127.579 39.8145 127.55 40.7812C127.53 41.748 127.521 42.8027 127.521 43.9453C127.521 44.1406 127.452 44.3066 127.315 44.4434C127.188 44.5703 127.037 44.6777 126.861 44.7656C126.686 44.8438 126.505 44.9023 126.319 44.9414C126.134 44.9805 125.982 45 125.865 45C125.719 45 125.582 44.9561 125.455 44.8682C125.328 44.7803 125.265 44.585 125.265 44.2822C125.265 44.1357 125.279 43.9551 125.309 43.7402C125.338 43.5156 125.377 43.2764 125.426 43.0225C125.465 42.7686 125.514 42.5098 125.572 42.2461C125.621 41.9727 125.67 41.7188 125.719 41.4844C125.719 40.6543 125.719 39.9072 125.719 39.2432C125.709 38.5791 125.704 37.9883 125.704 37.4707C125.704 36.9531 125.704 36.499 125.704 36.1084C125.694 35.7178 125.689 35.3809 125.689 35.0977C125.689 34.6289 125.699 34.2871 125.719 34.0723C125.729 33.8477 125.748 33.6914 125.777 33.6035C125.826 33.4668 125.914 33.3594 126.041 33.2812C126.178 33.2031 126.319 33.1445 126.466 33.1055C126.612 33.0566 126.759 33.0273 126.905 33.0176C127.052 33.0078 127.164 33.0029 127.242 33.0029C127.428 33.0029 127.55 33.0566 127.608 33.1641C127.667 33.2715 127.696 33.4375 127.696 33.6621C127.696 34.1699 127.696 34.6289 127.696 35.0391C127.696 35.4492 127.687 35.8594 127.667 36.2695C127.853 35.8301 128.067 35.415 128.312 35.0244C128.565 34.624 128.844 34.2773 129.146 33.9844C129.449 33.6816 129.767 33.4424 130.099 33.2666C130.44 33.0908 130.792 33.0029 131.153 33.0029C131.593 33.0029 131.954 33.0957 132.237 33.2812C132.53 33.457 132.76 33.7061 132.926 34.0283C133.102 34.3506 133.229 34.7314 133.307 35.1709C133.395 35.6006 133.453 36.0693 133.482 36.5771C133.756 36.0791 134.049 35.6152 134.361 35.1855C134.684 34.7461 135.021 34.3652 135.372 34.043C135.733 33.7207 136.109 33.4668 136.5 33.2812C136.9 33.0957 137.315 33.0029 137.745 33.0029C138.487 33.0029 139.029 33.2373 139.371 33.7061C139.713 34.165 139.884 34.79 139.884 35.5811C139.884 36.0791 139.845 36.6357 139.767 37.251C139.688 37.8662 139.605 38.4912 139.518 39.126C139.43 39.751 139.347 40.3662 139.269 40.9717C139.19 41.5771 139.151 42.1289 139.151 42.627C139.151 43.2324 139.303 43.5352 139.605 43.5352C139.762 43.5352 139.933 43.4424 140.118 43.2568C140.304 43.0615 140.514 42.7686 140.748 42.3779C140.992 41.9775 141.271 41.4746 141.583 40.8691C141.905 40.2637 142.276 39.541 142.696 38.7012L142.843 38.3936L143.443 38.8477L143.297 39.1553C142.721 40.3076 142.228 41.2598 141.817 42.0117C141.417 42.7637 141.056 43.3643 140.733 43.8135C140.411 44.2529 140.104 44.5605 139.811 44.7363C139.527 44.9121 139.21 45 138.858 45C138.653 45 138.453 44.9707 138.258 44.9121C138.062 44.8535 137.892 44.751 137.745 44.6045C137.599 44.458 137.481 44.2627 137.394 44.0186C137.306 43.7646 137.262 43.4424 137.262 43.0518C137.262 42.4658 137.301 41.8066 137.379 41.0742C137.457 40.3418 137.545 39.6094 137.643 38.877C137.74 38.1445 137.828 37.4561 137.906 36.8115C137.984 36.1572 138.023 35.625 138.023 35.2148C138.023 34.8535 137.945 34.5654 137.789 34.3506C137.633 34.126 137.398 34.0137 137.086 34.0137C136.773 34.0137 136.446 34.1357 136.104 34.3799C135.772 34.624 135.445 34.9414 135.123 35.332C134.811 35.7129 134.513 36.1426 134.229 36.6211C133.956 37.0996 133.717 37.5732 133.512 38.042C133.512 39.0674 133.502 39.9658 133.482 40.7373C133.463 41.499 133.434 42.1436 133.395 42.6709C133.365 43.1982 133.321 43.6182 133.263 43.9307C133.204 44.2334 133.141 44.4385 133.072 44.5459C133.023 44.6143 132.94 44.6777 132.823 44.7363C132.706 44.7949 132.574 44.8438 132.428 44.8828C132.291 44.9219 132.154 44.9512 132.018 44.9707C131.891 44.9902 131.793 45 131.725 45C131.568 45 131.432 44.9561 131.314 44.8682C131.207 44.7705 131.153 44.585 131.153 44.3115C131.153 44.1846 131.163 44.0137 131.183 43.7988C131.212 43.584 131.246 43.3447 131.285 43.0811C131.324 42.8174 131.368 42.5342 131.417 42.2314C131.466 41.9287 131.515 41.6211 131.563 41.3086C131.573 41.0156 131.583 40.6885 131.593 40.3271C131.603 39.9658 131.612 39.6094 131.622 39.2578C131.632 38.8965 131.637 38.5547 131.637 38.2324C131.646 37.9004 131.651 37.6172 131.651 37.3828C131.651 36.8848 131.637 36.4307 131.607 36.0205C131.578 35.6104 131.52 35.2588 131.432 34.9658C131.354 34.6729 131.241 34.4482 131.095 34.292C130.948 34.126 130.758 34.043 130.523 34.043Z" fill="url(#paint0_linear_5_276)"/>
</g>
<g filter="url(#filter1_d_5_276)">
<path d="M32.1738 20.4053C34.1074 20.4053 35.8555 20.7178 37.418 21.3428C38.9902 21.958 40.333 22.8174 41.4463 23.9209C42.5596 25.0244 43.4189 26.3379 44.0244 27.8613C44.6299 29.3848 44.9326 31.0498 44.9326 32.8564C44.9326 34.0186 44.8203 35.1416 44.5957 36.2256C44.3711 37.3096 44.0488 38.3301 43.6289 39.2871C43.209 40.2441 42.6914 41.1182 42.0762 41.9092C41.4707 42.7002 40.7822 43.3838 40.0107 43.96C39.249 44.5264 38.4092 44.9658 37.4912 45.2783C36.583 45.5908 35.6113 45.7471 34.5762 45.7471C33.5215 45.7471 32.457 45.6494 31.3828 45.4541C30.3086 45.2588 29.2441 45.0488 28.1895 44.8242C27.8281 45.0293 27.457 45.2051 27.0762 45.3516C26.6953 45.5078 26.3145 45.6348 25.9336 45.7324C25.5527 45.8398 25.1768 45.918 24.8057 45.9668C24.4443 46.0254 24.1025 46.0547 23.7803 46.0547C22.8037 46.0547 22.0615 45.9424 21.5537 45.7178C21.0361 45.4932 20.7773 45.1562 20.7773 44.707C20.7773 44.4434 20.8506 44.209 20.9971 44.0039C21.1338 43.7988 21.3682 43.6279 21.7002 43.4912C22.0322 43.3447 22.4668 43.2373 23.0039 43.1689C23.5312 43.0908 24.1904 43.0518 24.9814 43.0518C25.5967 43.0518 26.2021 43.0859 26.7979 43.1543C27.3936 43.2129 27.9844 43.2861 28.5703 43.374L28.9658 42.9639C29.1709 42.7197 29.3271 42.4121 29.4346 42.041C29.542 41.6602 29.6201 41.1719 29.6689 40.5762C29.7178 39.9805 29.7471 39.2529 29.7568 38.3936C29.7666 37.5244 29.7715 36.4746 29.7715 35.2441C29.7715 34.0527 29.7764 33.0371 29.7861 32.1973C29.8057 31.3477 29.8447 30.6201 29.9033 30.0146C29.9619 29.4092 30.0498 28.8965 30.167 28.4766C30.2842 28.0469 30.4404 27.6562 30.6357 27.3047C30.8408 26.9434 31.0947 26.5918 31.3975 26.25C31.7002 25.8984 32.0615 25.498 32.4814 25.0488L33.2285 25.708C33.0137 25.9131 32.8428 26.167 32.7158 26.4697C32.5986 26.7627 32.5107 27.1143 32.4521 27.5244C32.3936 27.9248 32.3545 28.3838 32.335 28.9014C32.3252 29.4092 32.3203 29.9854 32.3203 30.6299V38.877C32.3203 39.5117 32.252 40.0684 32.1152 40.5469C31.9785 41.0156 31.793 41.4355 31.5586 41.8066C31.334 42.1777 31.0752 42.5098 30.7822 42.8027C30.4893 43.0957 30.1865 43.3691 29.874 43.623C30.4502 43.7402 31.0117 43.8574 31.5586 43.9746C32.1055 44.0918 32.6328 44.1992 33.1406 44.2969C33.6582 44.3945 34.1514 44.4775 34.6201 44.5459C35.0986 44.6045 35.5527 44.6338 35.9824 44.6338C36.7832 44.6338 37.4961 44.458 38.1211 44.1064C38.7461 43.7549 39.2881 43.2764 39.7471 42.6709C40.2061 42.0557 40.5918 41.3379 40.9043 40.5176C41.2266 39.6875 41.4854 38.7988 41.6807 37.8516C41.876 36.9043 42.0127 35.9131 42.0908 34.8779C42.1787 33.8428 42.2227 32.8174 42.2227 31.8018C42.2227 30.1904 42.0176 28.7451 41.6074 27.4658C41.1973 26.1865 40.5869 25.1025 39.7764 24.2139C38.9756 23.3154 37.9746 22.6318 36.7734 22.1631C35.582 21.6846 34.2002 21.4453 32.6279 21.4453C31.4951 21.4453 30.5088 21.5381 29.6689 21.7236C28.8291 21.8994 28.1064 22.1387 27.501 22.4414C26.9053 22.7344 26.417 23.0713 26.0361 23.4521C25.6553 23.833 25.3525 24.2285 25.1279 24.6387C24.9131 25.0391 24.7617 25.4395 24.6738 25.8398C24.5957 26.2402 24.5566 26.6064 24.5566 26.9385C24.5566 27.3291 24.5859 27.7148 24.6445 28.0957C24.7129 28.4668 24.8398 28.7988 25.0254 29.0918C25.2207 29.3848 25.4941 29.6191 25.8457 29.7949C26.1973 29.9707 26.666 30.0586 27.252 30.0586C27.4473 30.0586 27.6084 30.0488 27.7354 30.0293C27.8623 30 27.9697 29.9658 28.0576 29.9268C28.1553 29.8877 28.2383 29.8438 28.3066 29.7949L28.4824 30.6592C28.3359 30.7666 28.0869 30.8594 27.7354 30.9375C27.3936 31.0156 27.0225 31.0547 26.6221 31.0547C26.0361 31.0547 25.4893 30.9521 24.9814 30.7471C24.4834 30.542 24.0488 30.2637 23.6777 29.9121C23.3066 29.5508 23.0186 29.1357 22.8135 28.667C22.5986 28.1982 22.4912 27.7002 22.4912 27.1729C22.4912 26.2646 22.7305 25.4053 23.209 24.5947C23.6875 23.7744 24.3564 23.0566 25.2158 22.4414C26.0752 21.8164 27.0957 21.3232 28.2773 20.9619C29.4688 20.5908 30.7676 20.4053 32.1738 20.4053ZM23.1797 44.1064C23.0234 44.1064 22.8574 44.1113 22.6816 44.1211C22.5059 44.1309 22.3447 44.1553 22.1982 44.1943C22.042 44.2334 21.915 44.292 21.8174 44.3701C21.7197 44.4482 21.6709 44.5605 21.6709 44.707C21.6709 44.9023 21.832 45.0488 22.1543 45.1465C22.4766 45.2441 23.0186 45.293 23.7803 45.293C24.3662 45.293 24.9229 45.2295 25.4502 45.1025C25.9873 44.9756 26.4902 44.79 26.959 44.5459C26.3145 44.4287 25.6748 44.3262 25.04 44.2383C24.4053 44.1504 23.7852 44.1064 23.1797 44.1064ZM52.7695 41.8213C52.7207 41.8994 52.6475 42.0361 52.5498 42.2314C52.4619 42.417 52.3447 42.627 52.1982 42.8613C52.0615 43.0957 51.8955 43.3398 51.7002 43.5938C51.5146 43.8477 51.2998 44.0771 51.0557 44.2822C50.8115 44.4873 50.5381 44.6582 50.2354 44.7949C49.9424 44.9316 49.6152 45 49.2539 45C48.9707 45 48.6777 44.9414 48.375 44.8242C48.0723 44.707 47.7891 44.4922 47.5254 44.1797C47.2715 43.8672 47.0615 43.4424 46.8955 42.9053C46.7295 42.3584 46.6465 41.6553 46.6465 40.7959C46.6465 39.9756 46.6758 39.1553 46.7344 38.335C46.793 37.5049 46.8613 36.748 46.9395 36.0645C47.0273 35.3809 47.1104 34.8096 47.1885 34.3506C47.2666 33.8916 47.3252 33.6133 47.3643 33.5156C47.4033 33.4277 47.4814 33.3496 47.5986 33.2812C47.7158 33.2129 47.8477 33.1592 47.9941 33.1201C48.1504 33.0811 48.3066 33.0518 48.4629 33.0322C48.6289 33.0127 48.7705 33.0029 48.8877 33.0029C49.0439 33.0029 49.166 33.042 49.2539 33.1201C49.3516 33.1982 49.4004 33.3301 49.4004 33.5156C49.4004 33.6035 49.3809 33.7793 49.3418 34.043C49.3125 34.2969 49.2734 34.6094 49.2246 34.9805C49.1758 35.3516 49.1221 35.7617 49.0635 36.2109C49.0146 36.6602 48.9658 37.1191 48.917 37.5879C48.8682 38.0469 48.8242 38.5059 48.7852 38.9648C48.7559 39.4141 48.7412 39.8242 48.7412 40.1953C48.7412 41.2598 48.8535 42.0508 49.0781 42.5684C49.3125 43.0859 49.6934 43.3447 50.2207 43.3447C50.6699 43.3447 51.124 43.0176 51.583 42.3633C52.0518 41.709 52.457 40.7568 52.7988 39.5068C52.8477 38.9795 52.8916 38.418 52.9307 37.8223C52.9795 37.2168 53.0234 36.6455 53.0625 36.1084C53.1016 35.5615 53.1357 35.0732 53.165 34.6436C53.2041 34.2139 53.2383 33.9062 53.2676 33.7207C53.2969 33.584 53.375 33.4717 53.502 33.3838C53.6289 33.2861 53.7705 33.2129 53.9268 33.1641C54.0928 33.1055 54.249 33.0664 54.3955 33.0469C54.5518 33.0176 54.6689 33.0029 54.7471 33.0029C54.9131 33.0029 55.0254 33.042 55.084 33.1201C55.1523 33.1885 55.1865 33.3008 55.1865 33.457C55.1865 33.5938 55.1719 33.8574 55.1426 34.248C55.123 34.6289 55.0938 35.0781 55.0547 35.5957C55.0254 36.1035 54.9912 36.6504 54.9521 37.2363C54.9131 37.8223 54.874 38.3887 54.835 38.9355C54.8057 39.4727 54.7764 39.9609 54.7471 40.4004C54.7275 40.8398 54.7178 41.1719 54.7178 41.3965C54.7178 42.0605 54.752 42.583 54.8203 42.9639C54.8984 43.3447 55.0645 43.5352 55.3184 43.5352C55.5039 43.5352 55.7041 43.418 55.9189 43.1836C56.1436 42.9395 56.3828 42.6025 56.6367 42.1729C56.9004 41.7432 57.1836 41.2354 57.4863 40.6494C57.7891 40.0537 58.1162 39.4043 58.4678 38.7012L58.6143 38.3936L59.2148 38.8477L59.0684 39.1553C58.5996 40.083 58.1846 40.9131 57.8232 41.6455C57.4717 42.3682 57.1348 42.9785 56.8125 43.4766C56.4902 43.9746 56.1631 44.3555 55.8311 44.6191C55.499 44.873 55.1279 45 54.7178 45C54.3369 45 54.0195 44.9268 53.7656 44.7803C53.5215 44.6338 53.3262 44.4238 53.1797 44.1504C53.0332 43.877 52.9258 43.5449 52.8574 43.1543C52.7988 42.7637 52.7695 42.3193 52.7695 41.8213ZM63.4043 34.043C63.1211 34.043 62.8477 34.1455 62.584 34.3506C62.3301 34.5459 62.0859 34.8193 61.8516 35.1709C61.6172 35.5127 61.3877 35.918 61.1631 36.3867C60.9482 36.8457 60.7334 37.3389 60.5186 37.8662V38.042C60.4893 38.9014 60.46 39.8145 60.4307 40.7812C60.4111 41.748 60.4014 42.8027 60.4014 43.9453C60.4014 44.1406 60.333 44.3066 60.1963 44.4434C60.0693 44.5703 59.918 44.6777 59.7422 44.7656C59.5664 44.8438 59.3857 44.9023 59.2002 44.9414C59.0146 44.9805 58.8633 45 58.7461 45C58.5996 45 58.4629 44.9561 58.3359 44.8682C58.209 44.7803 58.1455 44.585 58.1455 44.2822C58.1455 44.1357 58.1602 43.9551 58.1895 43.7402C58.2188 43.5156 58.2578 43.2764 58.3066 43.0225C58.3457 42.7686 58.3945 42.5098 58.4531 42.2461C58.502 41.9727 58.5508 41.7188 58.5996 41.4844C58.5996 40.6543 58.5996 39.9072 58.5996 39.2432C58.5898 38.5791 58.585 37.9883 58.585 37.4707C58.585 36.9531 58.585 36.499 58.585 36.1084C58.5752 35.7178 58.5703 35.3809 58.5703 35.0977C58.5703 34.6289 58.5801 34.2871 58.5996 34.0723C58.6094 33.8477 58.6289 33.6914 58.6582 33.6035C58.707 33.4668 58.7949 33.3594 58.9219 33.2812C59.0586 33.2031 59.2002 33.1445 59.3467 33.1055C59.4932 33.0566 59.6396 33.0273 59.7861 33.0176C59.9326 33.0078 60.0449 33.0029 60.123 33.0029C60.3086 33.0029 60.4307 33.0566 60.4893 33.1641C60.5479 33.2715 60.5771 33.4375 60.5771 33.6621C60.5771 34.1699 60.5771 34.6289 60.5771 35.0391C60.5771 35.4492 60.5674 35.8594 60.5479 36.2695C60.7334 35.8301 60.9482 35.415 61.1924 35.0244C61.4463 34.624 61.7246 34.2773 62.0273 33.9844C62.3301 33.6816 62.6475 33.4424 62.9795 33.2666C63.3213 33.0908 63.6729 33.0029 64.0342 33.0029C64.4736 33.0029 64.835 33.0957 65.1182 33.2812C65.4111 33.457 65.6406 33.7061 65.8066 34.0283C65.9824 34.3506 66.1094 34.7314 66.1875 35.1709C66.2754 35.6006 66.334 36.0693 66.3633 36.5771C66.6367 36.0791 66.9297 35.6152 67.2422 35.1855C67.5645 34.7461 67.9014 34.3652 68.2529 34.043C68.6143 33.7207 68.9902 33.4668 69.3809 33.2812C69.7812 33.0957 70.1963 33.0029 70.626 33.0029C71.3682 33.0029 71.9102 33.2373 72.252 33.7061C72.5938 34.165 72.7646 34.79 72.7646 35.5811C72.7646 36.0791 72.7256 36.6357 72.6475 37.251C72.5693 37.8662 72.4863 38.4912 72.3984 39.126C72.3105 39.751 72.2275 40.3662 72.1494 40.9717C72.0713 41.5771 72.0322 42.1289 72.0322 42.627C72.0322 43.2324 72.1836 43.5352 72.4863 43.5352C72.6426 43.5352 72.8135 43.4424 72.999 43.2568C73.1846 43.0615 73.3945 42.7686 73.6289 42.3779C73.873 41.9775 74.1514 41.4746 74.4639 40.8691C74.7861 40.2637 75.1572 39.541 75.5771 38.7012L75.7236 38.3936L76.3242 38.8477L76.1777 39.1553C75.6016 40.3076 75.1084 41.2598 74.6982 42.0117C74.2979 42.7637 73.9365 43.3643 73.6143 43.8135C73.292 44.2529 72.9844 44.5605 72.6914 44.7363C72.4082 44.9121 72.0908 45 71.7393 45C71.5342 45 71.334 44.9707 71.1387 44.9121C70.9434 44.8535 70.7725 44.751 70.626 44.6045C70.4795 44.458 70.3623 44.2627 70.2744 44.0186C70.1865 43.7646 70.1426 43.4424 70.1426 43.0518C70.1426 42.4658 70.1816 41.8066 70.2598 41.0742C70.3379 40.3418 70.4258 39.6094 70.5234 38.877C70.6211 38.1445 70.709 37.4561 70.7871 36.8115C70.8652 36.1572 70.9043 35.625 70.9043 35.2148C70.9043 34.8535 70.8262 34.5654 70.6699 34.3506C70.5137 34.126 70.2793 34.0137 69.9668 34.0137C69.6543 34.0137 69.3271 34.1357 68.9854 34.3799C68.6533 34.624 68.3262 34.9414 68.0039 35.332C67.6914 35.7129 67.3936 36.1426 67.1104 36.6211C66.8369 37.0996 66.5977 37.5732 66.3926 38.042C66.3926 39.0674 66.3828 39.9658 66.3633 40.7373C66.3438 41.499 66.3145 42.1436 66.2754 42.6709C66.2461 43.1982 66.2021 43.6182 66.1436 43.9307C66.085 44.2334 66.0215 44.4385 65.9531 44.5459C65.9043 44.6143 65.8213 44.6777 65.7041 44.7363C65.5869 44.7949 65.4551 44.8438 65.3086 44.8828C65.1719 44.9219 65.0352 44.9512 64.8984 44.9707C64.7715 44.9902 64.6738 45 64.6055 45C64.4492 45 64.3125 44.9561 64.1953 44.8682C64.0879 44.7705 64.0342 44.585 64.0342 44.3115C64.0342 44.1846 64.0439 44.0137 64.0635 43.7988C64.0928 43.584 64.127 43.3447 64.166 43.0811C64.2051 42.8174 64.249 42.5342 64.2979 42.2314C64.3467 41.9287 64.3955 41.6211 64.4443 41.3086C64.4541 41.0156 64.4639 40.6885 64.4736 40.3271C64.4834 39.9658 64.4932 39.6094 64.5029 39.2578C64.5127 38.8965 64.5176 38.5547 64.5176 38.2324C64.5273 37.9004 64.5322 37.6172 64.5322 37.3828C64.5322 36.8848 64.5176 36.4307 64.4883 36.0205C64.459 35.6104 64.4004 35.2588 64.3125 34.9658C64.2344 34.6729 64.1221 34.4482 63.9756 34.292C63.8291 34.126 63.6387 34.043 63.4043 34.043ZM77.6572 37.207C77.667 38.3301 77.7402 39.3311 77.877 40.21C78.0137 41.0791 78.2041 41.8164 78.4482 42.4219C78.6924 43.0176 78.9902 43.4717 79.3418 43.7842C79.6934 44.0967 80.0938 44.2529 80.543 44.2529C81.1582 44.2529 81.666 44.0088 82.0664 43.5205C82.4766 43.0225 82.7793 42.3438 82.9746 41.4844C82.4668 41.377 81.9834 41.1768 81.5244 40.8838C81.0654 40.5908 80.6602 40.2295 80.3086 39.7998C79.957 39.3604 79.6738 38.8574 79.459 38.291C79.2539 37.7246 79.1514 37.1094 79.1514 36.4453C79.1514 35.8984 79.2197 35.4199 79.3564 35.0098C79.5029 34.5898 79.6934 34.2432 79.9277 33.9697C80.1621 33.6865 80.4307 33.4766 80.7334 33.3398C81.0459 33.1934 81.373 33.1201 81.7148 33.1201C82.1152 33.1201 82.5254 33.2373 82.9453 33.4717C83.3652 33.6963 83.7461 34.0381 84.0879 34.4971C84.4297 34.9463 84.708 35.5127 84.9229 36.1963C85.1377 36.8799 85.2451 37.6758 85.2451 38.584C85.2451 38.9258 85.2256 39.2627 85.1865 39.5947C85.1475 39.9268 85.0889 40.249 85.0107 40.5615C85.4795 40.4248 85.9043 40.2051 86.2852 39.9023C86.6758 39.5996 86.998 39.1992 87.252 38.7012L87.4131 38.3936L88.0137 38.8477L87.8525 39.1553C87.5205 39.8193 87.0762 40.3516 86.5195 40.752C85.9727 41.1426 85.377 41.3965 84.7324 41.5137C84.5566 42.0117 84.3271 42.4756 84.0439 42.9053C83.7705 43.3252 83.4531 43.6914 83.0918 44.0039C82.7402 44.3164 82.3398 44.5605 81.8906 44.7363C81.4512 44.9121 80.9727 45 80.4551 45C79.7227 45 79.0488 44.8438 78.4336 44.5312C77.8281 44.2188 77.3008 43.7109 76.8516 43.0078C76.4121 42.3047 76.0654 41.3818 75.8115 40.2393C75.5674 39.0869 75.4453 37.6758 75.4453 36.0059C75.4453 33.6816 75.5527 31.7041 75.7676 30.0732C75.9824 28.4326 76.2656 27.0996 76.6172 26.0742C76.9688 25.0391 77.374 24.2871 77.833 23.8184C78.292 23.3398 78.7656 23.1006 79.2539 23.1006C79.5566 23.1006 79.8057 23.2227 80.001 23.4668C80.1963 23.7012 80.2939 24.1309 80.2939 24.7559C80.2939 25.2441 80.2549 25.8008 80.1768 26.4258C80.0986 27.0508 79.9961 27.7197 79.8691 28.4326C79.7422 29.1455 79.5908 29.8877 79.415 30.6592C79.2393 31.4209 79.0537 32.1826 78.8584 32.9443C78.6631 33.6963 78.4629 34.4385 78.2578 35.1709C78.0527 35.8936 77.8525 36.5723 77.6572 37.207ZM80.1182 36.3281C80.1182 36.9043 80.1963 37.4365 80.3525 37.9248C80.5186 38.4033 80.7383 38.8281 81.0117 39.1992C81.2852 39.5605 81.6025 39.8633 81.9639 40.1074C82.3252 40.3516 82.7109 40.5225 83.1211 40.6201C83.1699 40.3467 83.1992 40.0635 83.209 39.7705C83.2285 39.4678 83.2383 39.1602 83.2383 38.8477C83.2383 38.1543 83.1846 37.5293 83.0771 36.9727C82.9697 36.4062 82.8281 35.9277 82.6523 35.5371C82.4766 35.1367 82.2715 34.8291 82.0371 34.6143C81.8027 34.3994 81.5635 34.292 81.3193 34.292C80.9873 34.292 80.7041 34.4727 80.4697 34.834C80.2354 35.1855 80.1182 35.6836 80.1182 36.3281ZM79.3418 25.1074C79.3418 24.9023 79.3174 24.7412 79.2686 24.624C79.2197 24.5068 79.1416 24.4482 79.0342 24.4482C78.9268 24.4482 78.8193 24.5996 78.7119 24.9023C78.6045 25.2051 78.4971 25.6152 78.3896 26.1328C78.292 26.6504 78.1992 27.251 78.1113 27.9346C78.0332 28.6182 77.96 29.3457 77.8916 30.1172C77.8232 30.8789 77.7695 31.6602 77.7305 32.4609C77.6914 33.2617 77.667 34.0332 77.6572 34.7754C77.8916 33.916 78.1113 33.0371 78.3164 32.1387C78.5215 31.2305 78.6973 30.3516 78.8438 29.502C79 28.6523 79.1221 27.8516 79.21 27.0996C79.2979 26.3379 79.3418 25.6738 79.3418 25.1074ZM104.522 39.1553C104.317 39.5557 104.078 39.9365 103.805 40.2979C103.541 40.6494 103.263 40.9766 102.97 41.2793C102.677 41.5723 102.384 41.8457 102.091 42.0996C101.798 42.3438 101.529 42.5586 101.285 42.7441V44.4287C101.285 45.708 101.183 46.8457 100.978 47.8418C100.782 48.8379 100.494 49.6826 100.113 50.376C99.7422 51.0693 99.293 51.5967 98.7656 51.958C98.248 52.3193 97.667 52.5 97.0225 52.5C96.6709 52.5 96.3486 52.4268 96.0557 52.2803C95.7627 52.1436 95.5088 51.9531 95.2939 51.709C95.0889 51.4648 94.9277 51.1768 94.8105 50.8447C94.6934 50.5225 94.6348 50.1758 94.6348 49.8047C94.6348 49.0918 94.752 48.4326 94.9863 47.8271C95.2305 47.2314 95.5576 46.665 95.9678 46.1279C96.3779 45.6006 96.8516 45.0977 97.3887 44.6191C97.9258 44.1309 98.4971 43.6475 99.1025 43.1689C99.1123 42.6318 99.127 42.0996 99.1465 41.5723C99.1758 41.0449 99.2002 40.5469 99.2197 40.0781C99.249 39.6094 99.2734 39.1846 99.293 38.8037C99.3223 38.4229 99.3467 38.1104 99.3662 37.8662C99.0342 38.54 98.6582 39.2041 98.2383 39.8584C97.8281 40.5029 97.3887 41.1182 96.9199 41.7041C96.4512 42.29 95.958 42.832 95.4404 43.3301C94.9326 43.8184 94.4199 44.2432 93.9023 44.6045C93.3848 44.9658 92.8672 45.2441 92.3496 45.4395C91.8418 45.6445 91.3535 45.7471 90.8848 45.7471C90.3574 45.7471 89.8545 45.6396 89.376 45.4248C88.9072 45.2197 88.4922 44.8926 88.1309 44.4434C87.7793 43.9941 87.501 43.418 87.2959 42.7148C87.0811 42.0117 86.9736 41.1719 86.9736 40.1953C86.9736 39.1016 87.0957 37.9785 87.3398 36.8262C87.584 35.6738 87.9209 34.5312 88.3506 33.3984C88.7803 32.2656 89.293 31.1572 89.8887 30.0732C90.4844 28.9893 91.1338 27.9688 91.8369 27.0117C92.54 26.0449 93.2871 25.1611 94.0781 24.3604C94.8691 23.5498 95.6748 22.8516 96.4951 22.2656C97.3154 21.6797 98.1357 21.2256 98.9561 20.9033C99.7861 20.5713 100.592 20.4053 101.373 20.4053C102.193 20.4053 102.848 20.6152 103.336 21.0352C103.834 21.4453 104.083 22.0312 104.083 22.793C104.083 23.2031 103.995 23.6035 103.819 23.9941C103.653 24.375 103.424 24.7461 103.131 25.1074C102.848 25.459 102.525 25.7959 102.164 26.1182C101.803 26.4307 101.432 26.7188 101.051 26.9824C100.68 27.2461 100.309 27.4805 99.9375 27.6855C99.5762 27.8906 99.2539 28.0615 98.9707 28.1982L98.5312 27.5977C98.9023 27.4121 99.3076 27.1484 99.7471 26.8066C100.187 26.4648 100.597 26.0791 100.978 25.6494C101.358 25.2197 101.676 24.7559 101.93 24.2578C102.184 23.7598 102.311 23.2617 102.311 22.7637C102.311 22.3438 102.198 21.9971 101.974 21.7236C101.759 21.4404 101.412 21.2988 100.934 21.2988C100.191 21.2988 99.3955 21.5283 98.5459 21.9873C97.7061 22.4463 96.8662 23.0859 96.0264 23.9062C95.1963 24.7266 94.4004 25.708 93.6387 26.8506C92.877 27.9834 92.2031 29.2285 91.6172 30.5859C91.0312 31.9434 90.5625 33.3838 90.2109 34.9072C89.8594 36.4307 89.6836 37.9932 89.6836 39.5947C89.6836 40.2979 89.7324 40.9277 89.8301 41.4844C89.9375 42.041 90.084 42.5146 90.2695 42.9053C90.4648 43.2861 90.6992 43.584 90.9727 43.7988C91.2559 44.0039 91.5732 44.1064 91.9248 44.1064C92.3545 44.1064 92.8232 43.9746 93.3311 43.7109C93.8389 43.4473 94.3467 43.0908 94.8545 42.6416C95.3721 42.1924 95.8799 41.6748 96.3779 41.0889C96.876 40.4932 97.335 39.8682 97.7549 39.2139C98.1748 38.5596 98.541 37.8955 98.8535 37.2217C99.166 36.5479 99.3955 35.9082 99.542 35.3027C99.6006 34.5898 99.6592 33.9404 99.7178 33.3545C99.7764 32.7588 99.8301 32.2363 99.8789 31.7871C99.9375 31.3379 99.9912 30.9766 100.04 30.7031C100.089 30.4199 100.133 30.2344 100.172 30.1465C100.25 30 100.362 29.8535 100.509 29.707C100.655 29.5605 100.812 29.4336 100.978 29.3262C101.153 29.209 101.324 29.1162 101.49 29.0479C101.656 28.9795 101.798 28.9453 101.915 28.9453C102.071 28.9453 102.174 29.0088 102.223 29.1357C102.281 29.2627 102.311 29.3994 102.311 29.5459C102.311 29.9756 102.237 30.5469 102.091 31.2598C101.944 31.9727 101.759 32.8027 101.534 33.75C101.437 34.1602 101.363 34.7021 101.314 35.376C101.275 36.04 101.246 36.7529 101.227 37.5146C101.217 38.2666 101.212 39.0283 101.212 39.7998C101.212 40.5615 101.207 41.2451 101.197 41.8506C101.92 41.3232 102.496 40.7812 102.926 40.2246C103.365 39.6582 103.697 39.1504 103.922 38.7012L104.083 38.3936L104.684 38.8477L104.522 39.1553ZM99.0732 44.2529C98.6143 44.6143 98.1943 44.9951 97.8135 45.3955C97.4326 45.7959 97.1055 46.2256 96.832 46.6846C96.5684 47.1436 96.3584 47.6416 96.2021 48.1787C96.0557 48.7256 95.9824 49.3164 95.9824 49.9512C95.9824 50.5566 96.0801 51.0059 96.2754 51.2988C96.4707 51.6016 96.7197 51.7529 97.0225 51.7529C97.3252 51.7529 97.5986 51.6211 97.8428 51.3574C98.0967 51.1035 98.3115 50.6787 98.4873 50.083C98.6729 49.4971 98.8145 48.7256 98.9121 47.7686C99.0195 46.8115 99.0732 45.6396 99.0732 44.2529ZM103.951 38.7012L104.098 38.3936C104.244 38.1006 104.376 37.7979 104.493 37.4854C104.62 37.1729 104.728 36.8799 104.815 36.6064C104.903 36.3232 104.972 36.0742 105.021 35.8594C105.069 35.6348 105.104 35.4639 105.123 35.3467C104.869 35.3174 104.625 35.2539 104.391 35.1562C104.156 35.0586 103.951 34.9268 103.775 34.7607C103.6 34.5947 103.463 34.3994 103.365 34.1748C103.258 33.9502 103.204 33.6963 103.204 33.4131C103.204 33.1885 103.243 32.9883 103.321 32.8125C103.399 32.6367 103.507 32.4902 103.644 32.373C103.771 32.2559 103.917 32.168 104.083 32.1094C104.239 32.041 104.405 32.0068 104.581 32.0068C104.815 32.0068 105.021 32.0557 105.196 32.1533C105.372 32.251 105.519 32.3828 105.636 32.5488C105.753 32.7051 105.841 32.8906 105.899 33.1055C105.958 33.3105 105.987 33.5254 105.987 33.75C106.261 33.75 106.554 33.7109 106.866 33.6328C107.188 33.5547 107.511 33.4717 107.833 33.3838C108.155 33.2861 108.473 33.1982 108.785 33.1201C109.098 33.042 109.386 33.0029 109.649 33.0029C109.874 33.0029 110.055 33.0518 110.191 33.1494C110.328 33.2373 110.396 33.3887 110.396 33.6035C110.396 33.7598 110.348 34.0186 110.25 34.3799C110.162 34.7412 110.05 35.1611 109.913 35.6396C109.776 36.1182 109.625 36.6406 109.459 37.207C109.303 37.7637 109.156 38.3301 109.02 38.9062C108.883 39.4727 108.766 40.0244 108.668 40.5615C108.58 41.0986 108.536 41.5771 108.536 41.9971C108.536 42.5244 108.595 42.8809 108.712 43.0664C108.829 43.252 109.039 43.3447 109.342 43.3447C109.469 43.3447 109.625 43.291 109.811 43.1836C110.006 43.0664 110.24 42.8467 110.514 42.5244C110.787 42.1924 111.109 41.7236 111.48 41.1182C111.861 40.5029 112.301 39.6973 112.799 38.7012L112.945 38.3936L113.546 38.8477L113.399 39.1553C112.813 40.3271 112.291 41.2891 111.832 42.041C111.373 42.793 110.948 43.3887 110.558 43.8281C110.177 44.2676 109.815 44.5752 109.474 44.751C109.132 44.917 108.79 45 108.448 45C107.872 45 107.403 44.7803 107.042 44.3408C106.681 43.9014 106.5 43.2227 106.5 42.3047C106.5 41.8066 106.568 41.2891 106.705 40.752C106.842 40.2148 107.013 39.6826 107.218 39.1553C107.423 38.6182 107.652 38.0908 107.906 37.5732C108.16 37.0557 108.399 36.5674 108.624 36.1084C108.858 35.6396 109.068 35.2051 109.254 34.8047C109.439 34.4043 109.571 34.0527 109.649 33.75L109.562 33.6621C109.405 33.6621 109.195 33.7451 108.932 33.9111C108.668 34.0771 108.37 34.2676 108.038 34.4824C107.716 34.6875 107.369 34.8828 106.998 35.0684C106.627 35.2539 106.251 35.3662 105.87 35.4053C105.851 35.542 105.807 35.7422 105.738 36.0059C105.68 36.2695 105.597 36.5625 105.489 36.8848C105.382 37.207 105.26 37.5391 105.123 37.8809C104.986 38.2227 104.845 38.5449 104.698 38.8477L104.552 39.1553L103.951 38.7012ZM104.669 32.8271C104.581 32.8271 104.508 32.8564 104.449 32.915C104.391 32.9736 104.361 33.042 104.361 33.1201C104.361 33.2373 104.391 33.3398 104.449 33.4277C104.508 33.5059 104.581 33.5742 104.669 33.6328C104.757 33.6816 104.845 33.7207 104.933 33.75C105.03 33.7695 105.113 33.7793 105.182 33.7793C105.182 33.5059 105.138 33.2812 105.05 33.1055C104.962 32.9199 104.835 32.8271 104.669 32.8271ZM121.822 41.3672C121.822 41.9238 121.871 42.3926 121.969 42.7734C122.066 43.1543 122.237 43.3447 122.481 43.3447C122.628 43.3447 122.784 43.2764 122.95 43.1396C123.126 42.9932 123.326 42.7588 123.551 42.4365C123.775 42.1143 124.029 41.6992 124.312 41.1914C124.605 40.6738 124.938 40.0439 125.309 39.3018L125.748 38.3936L126.349 38.8477L125.909 39.7559C125.499 40.5762 125.113 41.3135 124.752 41.9678C124.4 42.6123 124.063 43.1592 123.741 43.6084C123.419 44.0576 123.102 44.4043 122.789 44.6484C122.486 44.8828 122.184 45 121.881 45C121.559 45 121.285 44.9121 121.061 44.7363C120.846 44.5605 120.665 44.3213 120.519 44.0186C120.372 43.7061 120.26 43.3496 120.182 42.9492C120.104 42.5391 120.05 42.1045 120.021 41.6455C119.786 42.1143 119.527 42.5537 119.244 42.9639C118.961 43.3643 118.663 43.7158 118.351 44.0186C118.048 44.3213 117.73 44.5605 117.398 44.7363C117.066 44.9121 116.734 45 116.402 45C115.914 45 115.44 44.8975 114.981 44.6924C114.522 44.4873 114.112 44.1748 113.751 43.7549C113.399 43.335 113.116 42.8076 112.901 42.1729C112.687 41.5283 112.579 40.7715 112.579 39.9023C112.579 38.8867 112.711 37.959 112.975 37.1191C113.238 36.2695 113.595 35.542 114.044 34.9365C114.493 34.3213 115.011 33.8477 115.597 33.5156C116.183 33.1738 116.798 33.0029 117.442 33.0029C117.833 33.0029 118.194 33.0908 118.526 33.2666C118.858 33.4424 119.146 33.6572 119.391 33.9111C119.645 34.1553 119.854 34.4189 120.021 34.7021C120.187 34.9756 120.299 35.21 120.357 35.4053L120.533 33.9844C120.553 33.7988 120.641 33.6426 120.797 33.5156C120.963 33.3887 121.144 33.291 121.339 33.2227C121.534 33.1445 121.725 33.0908 121.91 33.0615C122.096 33.0225 122.228 33.0029 122.306 33.0029C122.423 33.0029 122.501 33.0225 122.54 33.0615C122.579 33.1006 122.599 33.1787 122.599 33.2959C122.599 33.4424 122.555 33.7402 122.467 34.1895C122.389 34.6289 122.301 35.1953 122.203 35.8887C122.115 36.5723 122.027 37.3779 121.939 38.3057C121.861 39.2334 121.822 40.2539 121.822 41.3672ZM120.211 37.5C120.211 37.0508 120.143 36.6113 120.006 36.1816C119.869 35.7422 119.684 35.3564 119.449 35.0244C119.215 34.6826 118.941 34.4092 118.629 34.2041C118.326 33.999 118.004 33.8965 117.662 33.8965C117.242 33.8965 116.847 34.0186 116.476 34.2627C116.114 34.4971 115.797 34.834 115.523 35.2734C115.26 35.7031 115.05 36.2256 114.894 36.8408C114.737 37.4463 114.659 38.1152 114.659 38.8477C114.659 40.3125 114.889 41.4307 115.348 42.2021C115.807 42.9639 116.417 43.3447 117.179 43.3447C117.511 43.3447 117.853 43.2129 118.204 42.9492C118.565 42.6758 118.893 42.29 119.186 41.792C119.488 41.2842 119.732 40.6689 119.918 39.9463C120.113 39.2236 120.211 38.4082 120.211 37.5ZM130.523 34.043C130.24 34.043 129.967 34.1455 129.703 34.3506C129.449 34.5459 129.205 34.8193 128.971 35.1709C128.736 35.5127 128.507 35.918 128.282 36.3867C128.067 36.8457 127.853 37.3389 127.638 37.8662V38.042C127.608 38.9014 127.579 39.8145 127.55 40.7812C127.53 41.748 127.521 42.8027 127.521 43.9453C127.521 44.1406 127.452 44.3066 127.315 44.4434C127.188 44.5703 127.037 44.6777 126.861 44.7656C126.686 44.8438 126.505 44.9023 126.319 44.9414C126.134 44.9805 125.982 45 125.865 45C125.719 45 125.582 44.9561 125.455 44.8682C125.328 44.7803 125.265 44.585 125.265 44.2822C125.265 44.1357 125.279 43.9551 125.309 43.7402C125.338 43.5156 125.377 43.2764 125.426 43.0225C125.465 42.7686 125.514 42.5098 125.572 42.2461C125.621 41.9727 125.67 41.7188 125.719 41.4844C125.719 40.6543 125.719 39.9072 125.719 39.2432C125.709 38.5791 125.704 37.9883 125.704 37.4707C125.704 36.9531 125.704 36.499 125.704 36.1084C125.694 35.7178 125.689 35.3809 125.689 35.0977C125.689 34.6289 125.699 34.2871 125.719 34.0723C125.729 33.8477 125.748 33.6914 125.777 33.6035C125.826 33.4668 125.914 33.3594 126.041 33.2812C126.178 33.2031 126.319 33.1445 126.466 33.1055C126.612 33.0566 126.759 33.0273 126.905 33.0176C127.052 33.0078 127.164 33.0029 127.242 33.0029C127.428 33.0029 127.55 33.0566 127.608 33.1641C127.667 33.2715 127.696 33.4375 127.696 33.6621C127.696 34.1699 127.696 34.6289 127.696 35.0391C127.696 35.4492 127.687 35.8594 127.667 36.2695C127.853 35.8301 128.067 35.415 128.312 35.0244C128.565 34.624 128.844 34.2773 129.146 33.9844C129.449 33.6816 129.767 33.4424 130.099 33.2666C130.44 33.0908 130.792 33.0029 131.153 33.0029C131.593 33.0029 131.954 33.0957 132.237 33.2812C132.53 33.457 132.76 33.7061 132.926 34.0283C133.102 34.3506 133.229 34.7314 133.307 35.1709C133.395 35.6006 133.453 36.0693 133.482 36.5771C133.756 36.0791 134.049 35.6152 134.361 35.1855C134.684 34.7461 135.021 34.3652 135.372 34.043C135.733 33.7207 136.109 33.4668 136.5 33.2812C136.9 33.0957 137.315 33.0029 137.745 33.0029C138.487 33.0029 139.029 33.2373 139.371 33.7061C139.713 34.165 139.884 34.79 139.884 35.5811C139.884 36.0791 139.845 36.6357 139.767 37.251C139.688 37.8662 139.605 38.4912 139.518 39.126C139.43 39.751 139.347 40.3662 139.269 40.9717C139.19 41.5771 139.151 42.1289 139.151 42.627C139.151 43.2324 139.303 43.5352 139.605 43.5352C139.762 43.5352 139.933 43.4424 140.118 43.2568C140.304 43.0615 140.514 42.7686 140.748 42.3779C140.992 41.9775 141.271 41.4746 141.583 40.8691C141.905 40.2637 142.276 39.541 142.696 38.7012L142.843 38.3936L143.443 38.8477L143.297 39.1553C142.721 40.3076 142.228 41.2598 141.817 42.0117C141.417 42.7637 141.056 43.3643 140.733 43.8135C140.411 44.2529 140.104 44.5605 139.811 44.7363C139.527 44.9121 139.21 45 138.858 45C138.653 45 138.453 44.9707 138.258 44.9121C138.062 44.8535 137.892 44.751 137.745 44.6045C137.599 44.458 137.481 44.2627 137.394 44.0186C137.306 43.7646 137.262 43.4424 137.262 43.0518C137.262 42.4658 137.301 41.8066 137.379 41.0742C137.457 40.3418 137.545 39.6094 137.643 38.877C137.74 38.1445 137.828 37.4561 137.906 36.8115C137.984 36.1572 138.023 35.625 138.023 35.2148C138.023 34.8535 137.945 34.5654 137.789 34.3506C137.633 34.126 137.398 34.0137 137.086 34.0137C136.773 34.0137 136.446 34.1357 136.104 34.3799C135.772 34.624 135.445 34.9414 135.123 35.332C134.811 35.7129 134.513 36.1426 134.229 36.6211C133.956 37.0996 133.717 37.5732 133.512 38.042C133.512 39.0674 133.502 39.9658 133.482 40.7373C133.463 41.499 133.434 42.1436 133.395 42.6709C133.365 43.1982 133.321 43.6182 133.263 43.9307C133.204 44.2334 133.141 44.4385 133.072 44.5459C133.023 44.6143 132.94 44.6777 132.823 44.7363C132.706 44.7949 132.574 44.8438 132.428 44.8828C132.291 44.9219 132.154 44.9512 132.018 44.9707C131.891 44.9902 131.793 45 131.725 45C131.568 45 131.432 44.9561 131.314 44.8682C131.207 44.7705 131.153 44.585 131.153 44.3115C131.153 44.1846 131.163 44.0137 131.183 43.7988C131.212 43.584 131.246 43.3447 131.285 43.0811C131.324 42.8174 131.368 42.5342 131.417 42.2314C131.466 41.9287 131.515 41.6211 131.563 41.3086C131.573 41.0156 131.583 40.6885 131.593 40.3271C131.603 39.9658 131.612 39.6094 131.622 39.2578C131.632 38.8965 131.637 38.5547 131.637 38.2324C131.646 37.9004 131.651 37.6172 131.651 37.3828C131.651 36.8848 131.637 36.4307 131.607 36.0205C131.578 35.6104 131.52 35.2588 131.432 34.9658C131.354 34.6729 131.241 34.4482 131.095 34.292C130.948 34.126 130.758 34.043 130.523 34.043Z" fill="url(#paint1_linear_5_276)"/>
</g>
<defs>
<filter id="filter0_f_5_276" x="0.777344" y="0.405273" width="162.666" height="72.0947" filterUnits="userSpaceOnUse" color-interpolation-filters="sRGB">
<feFlood flood-opacity="0" result="BackgroundImageFix"/>
<feBlend mode="normal" in="SourceGraphic" in2="BackgroundImageFix" result="shape"/>
<feGaussianBlur stdDeviation="10" result="effect1_foregroundBlur_5_276"/>
</filter>
<filter id="filter1_d_5_276" x="16.7773" y="20.4053" width="130.666" height="40.0947" filterUnits="userSpaceOnUse" color-interpolation-filters="sRGB">
<feFlood flood-opacity="0" result="BackgroundImageFix"/>
<feColorMatrix in="SourceAlpha" type="matrix" values="0 0 0 0 0 0 0 0 0 0 0 0 0 0 0 0 0 0 127 0" result="hardAlpha"/>
<feOffset dy="4"/>
<feGaussianBlur stdDeviation="2"/>
<feColorMatrix type="matrix" values="0 0 0 0 0 0 0 0 0 0 0 0 0 0 0 0 0 0 0.25 0"/>
<feBlend mode="normal" in2="BackgroundImageFix" result="effect1_dropShadow_5_276"/>
<feBlend mode="normal" in="SourceGraphic" in2="effect1_dropShadow_5_276" result="shape"/>
</filter>
<linearGradient id="paint0_linear_5_276" x1="29.7903" y1="33.299" x2="139.606" y2="33.299" gradientUnits="userSpaceOnUse">
<stop offset="0.151042" stop-color="#4DD4F7"/>
<stop offset="0.385417" stop-color="#9090FB"/>
<stop offset="0.598958" stop-color="#FF6B81"/>
<stop offset="0.807292" stop-color="#FBDF63"/>
<stop offset="1" stop-color="#D9F0F4"/>
</linearGradient>
<linearGradient id="paint1_linear_5_276" x1="29.7903" y1="33.299" x2="139.606" y2="33.299" gradientUnits="userSpaceOnUse">
<stop offset="0.151042" stop-color="#4DD4F7"/>
<stop offset="0.385417" stop-color="#9090FB"/>
<stop offset="0.598958" stop-color="#FF6B81"/>
<stop offset="0.807292" stop-color="#FBDF63"/>
<stop offset="1" stop-color="#D9F0F4"/>
</linearGradient>
</defs>
</svg>
